<mxfile host="app.diagrams.net" modified="2024-02-05T19:01:51.457Z" agent="Mozilla/5.0 (Macintosh; Intel Mac OS X 10_15_7) AppleWebKit/537.36 (KHTML, like Gecko) Chrome/121.0.0.0 Safari/537.36" etag="alYXsWZ6u4pLhJlH_Ryc" version="23.0.2" type="device">
  <diagram name="Page-1" id="XEZzArgUHkVI1HDkG7ZG">
    <mxGraphModel dx="955" dy="567" grid="1" gridSize="10" guides="1" tooltips="1" connect="1" arrows="1" fold="1" page="1" pageScale="1" pageWidth="850" pageHeight="1100" math="0" shadow="0">
      <root>
        <mxCell id="0" />
        <mxCell id="1" parent="0" />
        <mxCell id="uos0YbBtggYzZIiFaMqM-1" value="" style="endArrow=classic;html=1;rounded=0;strokeWidth=2;" edge="1" parent="1">
          <mxGeometry width="50" height="50" relative="1" as="geometry">
            <mxPoint x="200" y="540" as="sourcePoint" />
            <mxPoint x="200" y="160" as="targetPoint" />
          </mxGeometry>
        </mxCell>
        <mxCell id="uos0YbBtggYzZIiFaMqM-2" value="" style="endArrow=classic;html=1;rounded=0;strokeWidth=2;" edge="1" parent="1">
          <mxGeometry width="50" height="50" relative="1" as="geometry">
            <mxPoint x="120" y="440" as="sourcePoint" />
            <mxPoint x="750" y="440" as="targetPoint" />
          </mxGeometry>
        </mxCell>
        <mxCell id="uos0YbBtggYzZIiFaMqM-3" value="" style="endArrow=none;dashed=1;html=1;dashPattern=1 3;strokeWidth=2;rounded=0;" edge="1" parent="1" source="uos0YbBtggYzZIiFaMqM-23">
          <mxGeometry width="50" height="50" relative="1" as="geometry">
            <mxPoint x="240" y="440" as="sourcePoint" />
            <mxPoint x="240" y="340" as="targetPoint" />
          </mxGeometry>
        </mxCell>
        <mxCell id="uos0YbBtggYzZIiFaMqM-4" value="" style="endArrow=none;dashed=1;html=1;dashPattern=1 3;strokeWidth=2;rounded=0;" edge="1" parent="1">
          <mxGeometry width="50" height="50" relative="1" as="geometry">
            <mxPoint x="320" y="440" as="sourcePoint" />
            <mxPoint x="320" y="350" as="targetPoint" />
          </mxGeometry>
        </mxCell>
        <mxCell id="uos0YbBtggYzZIiFaMqM-8" value="" style="endArrow=none;dashed=1;html=1;dashPattern=1 3;strokeWidth=2;rounded=0;" edge="1" parent="1">
          <mxGeometry width="50" height="50" relative="1" as="geometry">
            <mxPoint x="400" y="250" as="sourcePoint" />
            <mxPoint x="200" y="250" as="targetPoint" />
          </mxGeometry>
        </mxCell>
        <mxCell id="uos0YbBtggYzZIiFaMqM-10" value="" style="endArrow=none;dashed=1;html=1;dashPattern=1 3;strokeWidth=2;rounded=0;" edge="1" parent="1">
          <mxGeometry width="50" height="50" relative="1" as="geometry">
            <mxPoint x="480" y="440" as="sourcePoint" />
            <mxPoint x="480" y="390" as="targetPoint" />
          </mxGeometry>
        </mxCell>
        <mxCell id="uos0YbBtggYzZIiFaMqM-11" value="" style="endArrow=none;dashed=1;html=1;dashPattern=1 3;strokeWidth=2;rounded=0;" edge="1" parent="1">
          <mxGeometry width="50" height="50" relative="1" as="geometry">
            <mxPoint x="480" y="390" as="sourcePoint" />
            <mxPoint x="200" y="390" as="targetPoint" />
          </mxGeometry>
        </mxCell>
        <mxCell id="uos0YbBtggYzZIiFaMqM-14" value="" style="endArrow=none;dashed=1;html=1;dashPattern=1 3;strokeWidth=2;rounded=0;" edge="1" parent="1">
          <mxGeometry width="50" height="50" relative="1" as="geometry">
            <mxPoint x="560" y="440" as="sourcePoint" />
            <mxPoint x="560" y="260" as="targetPoint" />
          </mxGeometry>
        </mxCell>
        <mxCell id="uos0YbBtggYzZIiFaMqM-15" value="" style="endArrow=none;dashed=1;html=1;dashPattern=1 3;strokeWidth=2;rounded=0;" edge="1" parent="1">
          <mxGeometry width="50" height="50" relative="1" as="geometry">
            <mxPoint x="560" y="260" as="sourcePoint" />
            <mxPoint x="200" y="260" as="targetPoint" />
          </mxGeometry>
        </mxCell>
        <mxCell id="uos0YbBtggYzZIiFaMqM-17" value="&lt;h4&gt;&lt;span style=&quot;font-weight: normal;&quot;&gt;&lt;font style=&quot;font-size: 21px;&quot;&gt;f&lt;/font&gt;&lt;/span&gt;&lt;/h4&gt;" style="text;html=1;strokeColor=none;fillColor=none;align=center;verticalAlign=middle;whiteSpace=wrap;rounded=0;" vertex="1" parent="1">
          <mxGeometry x="150" y="170" width="60" height="30" as="geometry" />
        </mxCell>
        <mxCell id="uos0YbBtggYzZIiFaMqM-18" value="&lt;h4&gt;&lt;span style=&quot;font-weight: normal;&quot;&gt;&lt;font style=&quot;font-size: 21px;&quot;&gt;t&lt;/font&gt;&lt;/span&gt;&lt;/h4&gt;" style="text;html=1;strokeColor=none;fillColor=none;align=center;verticalAlign=middle;whiteSpace=wrap;rounded=0;" vertex="1" parent="1">
          <mxGeometry x="680" y="450" width="60" height="30" as="geometry" />
        </mxCell>
        <mxCell id="uos0YbBtggYzZIiFaMqM-20" value="" style="endArrow=none;dashed=1;html=1;dashPattern=1 3;strokeWidth=2;rounded=0;" edge="1" parent="1">
          <mxGeometry width="50" height="50" relative="1" as="geometry">
            <mxPoint x="400" y="440" as="sourcePoint" />
            <mxPoint x="400" y="250" as="targetPoint" />
          </mxGeometry>
        </mxCell>
        <mxCell id="uos0YbBtggYzZIiFaMqM-21" value="" style="curved=1;endArrow=none;html=1;rounded=0;edgeStyle=orthogonalEdgeStyle;endFill=0;strokeWidth=2;strokeColor=#BABABA;" edge="1" parent="1">
          <mxGeometry width="50" height="50" relative="1" as="geometry">
            <mxPoint x="280" y="300.0000000000001" as="sourcePoint" />
            <mxPoint x="646" y="270" as="targetPoint" />
            <Array as="points">
              <mxPoint x="271" y="300" />
              <mxPoint x="300" y="300" />
              <mxPoint x="300" y="350" />
              <mxPoint x="330" y="350" />
              <mxPoint x="330" y="270" />
              <mxPoint x="350" y="270" />
              <mxPoint x="350" y="340" />
              <mxPoint x="380" y="340" />
              <mxPoint x="380" y="250" />
              <mxPoint x="410" y="250" />
              <mxPoint x="410" y="300" />
              <mxPoint x="440" y="300" />
              <mxPoint x="440" y="260" />
              <mxPoint x="460" y="260" />
              <mxPoint x="460" y="390" />
              <mxPoint x="510" y="390" />
              <mxPoint x="510" y="300" />
              <mxPoint x="540" y="300" />
              <mxPoint x="540" y="260" />
              <mxPoint x="576" y="260" />
              <mxPoint x="576" y="350" />
              <mxPoint x="626" y="350" />
              <mxPoint x="626" y="270" />
            </Array>
          </mxGeometry>
        </mxCell>
        <mxCell id="uos0YbBtggYzZIiFaMqM-22" value="" style="endArrow=none;dashed=1;html=1;dashPattern=1 3;strokeWidth=2;rounded=0;" edge="1" parent="1" target="uos0YbBtggYzZIiFaMqM-23">
          <mxGeometry width="50" height="50" relative="1" as="geometry">
            <mxPoint x="240" y="440" as="sourcePoint" />
            <mxPoint x="240" y="340" as="targetPoint" />
          </mxGeometry>
        </mxCell>
        <mxCell id="uos0YbBtggYzZIiFaMqM-23" value="" style="shape=waypoint;sketch=0;fillStyle=solid;size=6;pointerEvents=1;points=[];fillColor=none;resizable=0;rotatable=0;perimeter=centerPerimeter;snapToPoint=1;" vertex="1" parent="1">
          <mxGeometry x="230" y="330" width="20" height="20" as="geometry" />
        </mxCell>
        <mxCell id="uos0YbBtggYzZIiFaMqM-24" value="" style="curved=1;endArrow=none;html=1;rounded=0;edgeStyle=orthogonalEdgeStyle;endFill=0;strokeWidth=2;strokeColor=#BABABA;" edge="1" parent="1">
          <mxGeometry width="50" height="50" relative="1" as="geometry">
            <mxPoint x="220" y="340" as="sourcePoint" />
            <mxPoint x="280" y="300.0000000000001" as="targetPoint" />
            <Array as="points">
              <mxPoint x="220" y="341" />
              <mxPoint x="271" y="341" />
            </Array>
          </mxGeometry>
        </mxCell>
        <mxCell id="uos0YbBtggYzZIiFaMqM-26" value="" style="shape=waypoint;sketch=0;fillStyle=solid;size=6;pointerEvents=1;points=[];fillColor=none;resizable=0;rotatable=0;perimeter=centerPerimeter;snapToPoint=1;" vertex="1" parent="1">
          <mxGeometry x="310" y="338" width="20" height="20" as="geometry" />
        </mxCell>
        <mxCell id="uos0YbBtggYzZIiFaMqM-27" value="" style="endArrow=none;dashed=1;html=1;dashPattern=1 3;strokeWidth=2;rounded=0;" edge="1" parent="1" source="uos0YbBtggYzZIiFaMqM-26">
          <mxGeometry width="50" height="50" relative="1" as="geometry">
            <mxPoint x="300" y="630" as="sourcePoint" />
            <mxPoint x="200" y="350" as="targetPoint" />
          </mxGeometry>
        </mxCell>
        <mxCell id="uos0YbBtggYzZIiFaMqM-30" value="" style="endArrow=none;dashed=1;html=1;dashPattern=1 3;strokeWidth=2;rounded=0;" edge="1" parent="1">
          <mxGeometry width="50" height="50" relative="1" as="geometry">
            <mxPoint x="440" y="290" as="sourcePoint" />
            <mxPoint x="438" y="290.0000000000001" as="targetPoint" />
          </mxGeometry>
        </mxCell>
        <mxCell id="uos0YbBtggYzZIiFaMqM-61" value="" style="endArrow=none;html=1;rounded=0;strokeColor=#FF2424;strokeWidth=2;" edge="1" parent="1" target="uos0YbBtggYzZIiFaMqM-26">
          <mxGeometry width="50" height="50" relative="1" as="geometry">
            <mxPoint x="240" y="340" as="sourcePoint" />
            <mxPoint x="260" y="337" as="targetPoint" />
          </mxGeometry>
        </mxCell>
        <mxCell id="uos0YbBtggYzZIiFaMqM-65" value="" style="endArrow=none;html=1;rounded=0;strokeColor=#FF2424;strokeWidth=2;exitX=0.7;exitY=0.75;exitDx=0;exitDy=0;exitPerimeter=0;entryX=0.673;entryY=0.727;entryDx=0;entryDy=0;entryPerimeter=0;" edge="1" parent="1" source="uos0YbBtggYzZIiFaMqM-26" target="uos0YbBtggYzZIiFaMqM-29">
          <mxGeometry width="50" height="50" relative="1" as="geometry">
            <mxPoint x="320" y="660" as="sourcePoint" />
            <mxPoint x="339" y="270.0000000000001" as="targetPoint" />
          </mxGeometry>
        </mxCell>
        <mxCell id="uos0YbBtggYzZIiFaMqM-72" value="" style="endArrow=none;html=1;rounded=0;strokeColor=#FF2424;strokeWidth=2;exitX=0.365;exitY=0.304;exitDx=0;exitDy=0;exitPerimeter=0;entryX=0.75;entryY=0.8;entryDx=0;entryDy=0;entryPerimeter=0;" edge="1" parent="1" source="uos0YbBtggYzZIiFaMqM-29" target="uos0YbBtggYzZIiFaMqM-32">
          <mxGeometry width="50" height="50" relative="1" as="geometry">
            <mxPoint x="461" y="348" as="sourcePoint" />
            <mxPoint x="420" y="667" as="targetPoint" />
          </mxGeometry>
        </mxCell>
        <mxCell id="uos0YbBtggYzZIiFaMqM-76" value="" style="endArrow=none;html=1;rounded=0;strokeColor=#FF2424;strokeWidth=2;entryX=0.65;entryY=0.9;entryDx=0;entryDy=0;entryPerimeter=0;" edge="1" parent="1" source="uos0YbBtggYzZIiFaMqM-32" target="uos0YbBtggYzZIiFaMqM-34">
          <mxGeometry width="50" height="50" relative="1" as="geometry">
            <mxPoint x="539" y="288" as="sourcePoint" />
            <mxPoint x="570" y="607" as="targetPoint" />
          </mxGeometry>
        </mxCell>
        <mxCell id="uos0YbBtggYzZIiFaMqM-32" value="" style="shape=waypoint;sketch=0;fillStyle=solid;size=6;pointerEvents=1;points=[];fillColor=none;resizable=0;rotatable=0;perimeter=centerPerimeter;snapToPoint=1;" vertex="1" parent="1">
          <mxGeometry x="470" y="378" width="20" height="20" as="geometry" />
        </mxCell>
        <mxCell id="uos0YbBtggYzZIiFaMqM-34" value="" style="shape=waypoint;sketch=0;fillStyle=solid;size=6;pointerEvents=1;points=[];fillColor=none;resizable=0;rotatable=0;perimeter=centerPerimeter;snapToPoint=1;" vertex="1" parent="1">
          <mxGeometry x="550" y="248" width="20" height="20" as="geometry" />
        </mxCell>
        <mxCell id="uos0YbBtggYzZIiFaMqM-29" value="" style="shape=waypoint;sketch=0;fillStyle=solid;size=6;pointerEvents=1;points=[];fillColor=none;resizable=0;rotatable=0;perimeter=centerPerimeter;snapToPoint=1;" vertex="1" parent="1">
          <mxGeometry x="390" y="240" width="20" height="20" as="geometry" />
        </mxCell>
      </root>
    </mxGraphModel>
  </diagram>
</mxfile>
